<?xml version="1.0" encoding="utf-8"?>
<!-- Generator: Adobe Illustrator 21.1.0, SVG Export Plug-In . SVG Version: 6.00 Build 0)  -->
<svg version="1.1" id="Capa_1" xmlns="http://www.w3.org/2000/svg" xmlns:xlink="http://www.w3.org/1999/xlink" x="0px" y="0px"
	 viewBox="0 0 31.1 31.1" style="enable-background:new 0 0 31.1 31.1;" xml:space="preserve">
<style type="text/css">
	.st0{fill:none;}
	.st1{fill:#2D2D2D;stroke:#FFFFFF;stroke-width:0.75;stroke-miterlimit:10;}
</style>
<path class="st0" d="M15.5,1.8C7.9,1.8,1.8,7.9,1.8,15.5c0,7.6,6.2,13.8,13.8,13.8c7.6,0,13.8-6.2,13.8-13.8
	C29.3,7.9,23.1,1.8,15.5,1.8z M21.7,16.4h-5.2v5.2c0,0.5-0.4,0.9-0.9,0.9c-0.5,0-0.9-0.4-0.9-0.9v-5.2H9.4c-0.5,0-0.9-0.4-0.9-0.9
	c0-0.5,0.4-0.9,0.9-0.9h5.2V9.4c0-0.5,0.4-0.9,0.9-0.9s0.9,0.4,0.9,0.9v5.2h5.2c0.5,0,0.9,0.4,0.9,0.9C22.5,16,22.1,16.4,21.7,16.4z
	"/>
<path class="st1" d="M15.5,0C7,0,0,7,0,15.5c0,8.6,7,15.5,15.5,15.5s15.5-7,15.5-15.5C31.1,7,24.1,0,15.5,0z M15.5,29.3
	c-7.6,0-13.8-6.2-13.8-13.8c0-7.6,6.2-13.8,13.8-13.8c7.6,0,13.8,6.2,13.8,13.8C29.3,23.1,23.1,29.3,15.5,29.3z"/>
<path class="st1" d="M21.7,14.6h-5.2V9.4c0-0.5-0.4-0.9-0.9-0.9s-0.9,0.4-0.9,0.9v5.2H9.4c-0.5,0-0.9,0.4-0.9,0.9
	c0,0.5,0.4,0.9,0.9,0.9h5.2v5.2c0,0.5,0.4,0.9,0.9,0.9c0.5,0,0.9-0.4,0.9-0.9v-5.2h5.2c0.5,0,0.9-0.4,0.9-0.9
	C22.5,15,22.1,14.6,21.7,14.6z"/>
</svg>
