<?xml version="1.0" encoding="utf-8"?>
<!-- Generator: Adobe Illustrator 21.1.0, SVG Export Plug-In . SVG Version: 6.00 Build 0)  -->
<svg version="1.1" id="Calque_1" xmlns="http://www.w3.org/2000/svg" xmlns:xlink="http://www.w3.org/1999/xlink" x="0px" y="0px"
	 viewBox="0 0 129 129" style="enable-background:new 0 0 129 129;" xml:space="preserve">
<style type="text/css">
	.st0{fill:#FFFFFF;}
</style>
<path class="st0" d="M64.5,0C28.9,0,0,28.9,0,64.5S28.9,129,64.5,129S129,100.1,129,64.5S100.1,0,64.5,0z M64.5,124.3
	c-33,0-59.8-26.8-59.8-59.8S31.5,4.7,64.5,4.7s59.8,26.8,59.8,59.8S97.5,124.3,64.5,124.3z"/>
<path class="st0" d="M52.2,31c-1.4,0-2.4,1-2.4,2.4v61.1c0,1.4,1,2.4,2.4,2.4c1.4,0,2.4-1,2.4-2.4V33.5C54.6,32.1,53.6,31,52.2,31z"
	/>
<path class="st0" d="M76.8,31c-1.4,0-2.4,1-2.4,2.4v61.1c0,1.4,1,2.4,2.4,2.4c1.4,0,2.4-1,2.4-2.4V33.5C79.2,32.1,78.2,31,76.8,31z"
	/>
</svg>
