<?xml version="1.0" encoding="utf-8"?>
<!-- Generator: Adobe Illustrator 21.1.0, SVG Export Plug-In . SVG Version: 6.00 Build 0)  -->
<svg version="1.1" id="Capa_1" xmlns="http://www.w3.org/2000/svg" xmlns:xlink="http://www.w3.org/1999/xlink" x="0px" y="0px"
	 viewBox="0 0 420 420" style="enable-background:new 0 0 420 420;" xml:space="preserve">
<style type="text/css">
	.st0{fill:#FFFFFF;}
</style>
<path class="st0" d="M210,0C94.2,0,0,94.2,0,210s94.2,210,210,210s210-94.2,210-210S325.8,0,210,0z M210,405.8
	c-107.9,0-195.8-87.8-195.8-195.8c0-107.9,87.8-195.8,195.8-195.8c107.9,0,195.8,87.8,195.8,195.8
	C405.8,317.9,317.9,405.8,210,405.8z"/>
<path class="st0" d="M293.4,189.8L179.7,115c-5.5-3.6-10.6-5.4-15.1-5.4c-2.4,0-4.5,0.5-6.5,1.5c-5.6,3-8.6,10.1-8.6,20.1v157.5
	c0,10,3.1,17.2,8.6,20.2c5.6,3,13.2,1.7,21.6-3.8l113.6-74.3c8.5-5.5,13.1-12.8,13.1-20.5C306.5,202.6,301.8,195.4,293.4,189.8z
	 M282.1,221l-101,66.1c-2.6,1.7-5.2,2.6-7.7,2.6c-1.6,0-3-0.4-4.4-1.1c-3.4-1.8-5.4-5.8-5.4-10.9V142.3c0-5.1,2-9.1,5.4-10.9
	c3.4-1.8,7.8-1.3,12,1.5l101,66.5c4.1,2.7,6.5,6.7,6.5,10.8C288.7,214.3,286.3,218.3,282.1,221z"/>
</svg>
